# This file uses centimeters as units for non-parametric coordinates.

mtllib Crystals_4.mtl
g default
v -7.141212 36.971293 0.291737
v -6.713064 36.387212 2.535920
v -4.927421 37.398716 3.697452
v -3.569926 38.994302 2.614802
v -3.998074 39.578383 0.370619
v -5.783717 38.566879 -0.790913
v -6.958370 39.890876 2.255660
v 2.281008 28.966110 -4.828252
v 0.923513 27.370524 -3.745602
v 4.066651 29.977614 -3.666720
v 4.494799 29.393533 -1.422538
v 3.137304 27.797947 -0.339887
v 1.351661 26.786442 -1.501419
v -1.774054 42.873844 -1.650079
v 1.132510 43.480364 -1.575062
v 2.704971 43.528728 -4.094315
v 1.370868 42.970571 -6.688586
v -1.535697 42.364051 -6.763603
v -3.108157 42.315687 -4.244349
v -0.862639 46.133477 -4.520294
v 0.217989 26.157725 -2.478438
v 1.552092 26.715881 0.115832
v 1.790450 26.206088 -4.997692
v 4.697014 26.812609 -4.922675
v 6.031118 27.370765 -2.328404
v 4.458657 27.322402 0.190850
v 4.809657 42.294209 -2.604694
v 6.160078 41.762693 -2.488757
v 6.893706 41.371992 -3.684050
v 6.276915 41.512805 -4.995280
v 4.926494 42.044321 -5.111217
v 4.192866 42.435023 -3.915924
v 6.142571 43.399667 -3.921212
v 1.177476 34.906880 -3.305961
v 1.794268 34.766066 -1.994731
v 1.911104 34.516178 -4.501255
v 3.261524 33.984663 -4.385318
v 3.878316 33.843849 -3.074088
v 3.144687 34.234551 -1.878795
vt 0.690661 0.186323
vt 0.677699 0.186318
vt 0.716585 0.186333
vt 0.677894 0.127808
vt 0.690857 0.127822
vt 0.703623 0.186328
vt 0.638812 0.186302
vt 0.651774 0.186307
vt 0.664737 0.186312
vt 0.697102 0.202630
vt 0.639008 0.127769
vt 0.632538 0.116537
vt 0.639030 0.105318
vt 0.651992 0.105331
vt 0.658462 0.116563
vt 0.651970 0.127782
vt 0.703819 0.127834
vt 0.716781 0.127847
vt 0.664932 0.127795
vt 0.684139 0.202625
vt 0.671177 0.202619
vt 0.658215 0.202614
vt 0.645253 0.202609
vt 0.710064 0.202635
vt 0.639008 0.127769
vt 0.632538 0.116537
vt 0.639030 0.105318
vt 0.651992 0.105331
vt 0.658462 0.116563
vt 0.651970 0.127782
vt 0.638812 0.186302
vt 0.651774 0.186307
vt 0.645253 0.202609
vt 0.664737 0.186312
vt 0.658215 0.202614
vt 0.677699 0.186318
vt 0.671177 0.202619
vt 0.690661 0.186323
vt 0.684139 0.202625
vt 0.703623 0.186328
vt 0.697102 0.202630
vt 0.716585 0.186333
vt 0.710064 0.202635
vt 0.703819 0.127834
vt 0.716781 0.127847
vt 0.690857 0.127822
vt 0.677894 0.127808
vt 0.664932 0.127795
vt 0.639008 0.127769
vt 0.632538 0.116537
vt 0.639030 0.105318
vt 0.651992 0.105331
vt 0.658462 0.116563
vt 0.651970 0.127782
vt 0.638812 0.186302
vt 0.651774 0.186307
vt 0.645253 0.202609
vt 0.664737 0.186312
vt 0.658215 0.202614
vt 0.677699 0.186318
vt 0.671177 0.202619
vt 0.690661 0.186323
vt 0.684139 0.202625
vt 0.703623 0.186328
vt 0.697102 0.202630
vt 0.716585 0.186333
vt 0.710064 0.202635
vt 0.703819 0.127834
vt 0.716781 0.127847
vt 0.690857 0.127822
vt 0.677894 0.127808
vt 0.664932 0.127795
vn 0.612240 -0.728850 -0.306498
vn 0.612240 -0.728850 -0.306498
vn 0.612240 -0.728850 -0.306498
vn 0.612240 -0.728850 -0.306498
vn 0.612240 -0.728850 -0.306498
vn 0.612240 -0.728850 -0.306498
vn -0.983335 -0.054985 0.173291
vn -0.983335 -0.054985 0.173291
vn -0.983335 -0.054985 0.173291
vn -0.555977 0.027525 0.830742
vn -0.555977 0.027525 0.830742
vn -0.555977 0.027525 0.830742
vn 0.050785 0.530807 0.845970
vn 0.050785 0.530807 0.845970
vn 0.050785 0.530807 0.845970
vn 0.230190 0.951578 0.203746
vn 0.230190 0.951578 0.203746
vn 0.230190 0.951578 0.203746
vn -0.197168 0.869066 -0.453705
vn -0.197168 0.869066 -0.453705
vn -0.197168 0.869066 -0.453705
vn -0.803930 0.365784 -0.468933
vn -0.803930 0.365784 -0.468933
vn -0.803930 0.365784 -0.468933
vn -0.542009 -0.104647 -0.833832
vn -0.542009 -0.104647 -0.833832
vn -0.542009 -0.104647 -0.833832
vn -0.542009 -0.104647 -0.833832
vn 0.227535 0.533655 -0.814519
vn 0.227535 0.533655 -0.814519
vn 0.227535 0.533655 -0.814519
vn 0.227535 0.533655 -0.814519
vn 0.769544 0.638302 0.019313
vn 0.769544 0.638302 0.019313
vn 0.769544 0.638302 0.019313
vn 0.769544 0.638302 0.019313
vn 0.542009 0.104647 0.833832
vn 0.542009 0.104647 0.833832
vn 0.542009 0.104647 0.833832
vn 0.542009 0.104647 0.833832
vn -0.227535 -0.533655 0.814519
vn -0.227535 -0.533655 0.814519
vn -0.227535 -0.533655 0.814519
vn -0.227535 -0.533655 0.814519
vn -0.769544 -0.638302 -0.019313
vn -0.769544 -0.638302 -0.019313
vn -0.769544 -0.638302 -0.019313
vn -0.769544 -0.638302 -0.019313
vn 0.200479 -0.973899 0.106438
vn 0.200479 -0.973899 0.106438
vn 0.200479 -0.973899 0.106438
vn 0.200479 -0.973899 0.106438
vn 0.200479 -0.973899 0.106438
vn 0.200479 -0.973899 0.106438
vn -0.159842 0.677154 0.718271
vn -0.159842 0.677154 0.718271
vn -0.159842 0.677154 0.718271
vn 0.526648 0.777526 0.343648
vn 0.526648 0.777526 0.343648
vn 0.526648 0.777526 0.343648
vn 0.563180 0.699392 -0.440090
vn 0.563180 0.699392 -0.440090
vn 0.563181 0.699391 -0.440090
vn -0.086777 0.520884 -0.849205
vn -0.086777 0.520884 -0.849205
vn -0.086777 0.520884 -0.849205
vn -0.773267 0.420512 -0.474583
vn -0.773267 0.420512 -0.474583
vn -0.773267 0.420512 -0.474583
vn -0.809799 0.498647 0.309156
vn -0.809799 0.498647 0.309156
vn -0.809799 0.498647 0.309156
vn -0.870661 -0.127300 0.475126
vn -0.870661 -0.127300 0.475126
vn -0.870661 -0.127300 0.475126
vn -0.870661 -0.127300 0.475126
vn -0.824327 -0.226397 -0.518872
vn -0.824327 -0.226397 -0.518872
vn -0.824327 -0.226397 -0.518872
vn -0.824327 -0.226397 -0.518872
vn 0.046333 -0.099097 -0.993998
vn 0.046333 -0.099097 -0.993998
vn 0.046333 -0.099097 -0.993998
vn 0.046333 -0.099097 -0.993998
vn 0.870661 0.127300 -0.475126
vn 0.870661 0.127300 -0.475126
vn 0.870661 0.127300 -0.475126
vn 0.870661 0.127300 -0.475126
vn 0.824327 0.226397 0.518873
vn 0.824327 0.226397 0.518873
vn 0.824327 0.226397 0.518873
vn 0.824327 0.226397 0.518873
vn -0.046333 0.099097 0.993998
vn -0.046333 0.099097 0.993998
vn -0.046333 0.099097 0.993998
vn -0.046333 0.099097 0.993998
vn -0.370783 -0.925686 0.075003
vn -0.370783 -0.925686 0.075003
vn -0.370783 -0.925686 0.075003
vn -0.370783 -0.925686 0.075003
vn -0.370783 -0.925686 0.075003
vn -0.370783 -0.925686 0.075003
vn 0.191526 0.647500 0.737605
vn 0.191526 0.647500 0.737605
vn 0.191526 0.647500 0.737605
vn 0.843165 0.359142 0.400113
vn 0.843165 0.359142 0.400113
vn 0.843165 0.359142 0.400113
vn 0.879697 0.281006 -0.383625
vn 0.879697 0.281006 -0.383625
vn 0.879697 0.281006 -0.383625
vn 0.264591 0.491230 -0.829870
vn 0.264591 0.491230 -0.829870
vn 0.264591 0.491230 -0.829870
vn -0.387048 0.779589 -0.492378
vn -0.387048 0.779589 -0.492378
vn -0.387048 0.779588 -0.492377
vn -0.423580 0.857723 0.291360
vn -0.423580 0.857723 0.291360
vn -0.423580 0.857723 0.291360
vn -0.826460 0.365719 0.428035
vn -0.826460 0.365719 0.428035
vn -0.826460 0.365719 0.428035
vn -0.826460 0.365719 0.428035
vn -0.780126 0.266622 -0.565964
vn -0.780126 0.266622 -0.565964
vn -0.780126 0.266622 -0.565964
vn -0.780126 0.266622 -0.565964
vn 0.046333 -0.099097 -0.993999
vn 0.046333 -0.099097 -0.993999
vn 0.046333 -0.099097 -0.993999
vn 0.046333 -0.099097 -0.993999
vn 0.826460 -0.365719 -0.428034
vn 0.826460 -0.365719 -0.428034
vn 0.826460 -0.365719 -0.428034
vn 0.826460 -0.365719 -0.428034
vn 0.780127 -0.266622 0.565964
vn 0.780127 -0.266622 0.565964
vn 0.780127 -0.266622 0.565964
vn 0.780127 -0.266622 0.565964
vn -0.046333 0.099097 0.993999
vn -0.046333 0.099097 0.993999
vn -0.046333 0.099097 0.993998
vn -0.046333 0.099097 0.993998
s off
g pCone8
usemtl initialShadingGroup
f 9/11/1 8/12/2 10/13/3 11/14/4 12/15/5 13/16/6
f 1/7/7 2/8/8 7/23/9
f 2/8/10 3/9/11 7/22/12
f 3/9/13 4/2/14 7/21/15
f 4/2/16 5/1/17 7/20/18
f 5/1/19 6/6/20 7/10/21
f 6/6/22 1/3/23 7/24/24
f 1/3/25 6/6/26 8/17/27 9/18/28
f 6/6/29 5/1/30 10/5/31 8/17/32
f 5/1/33 4/2/34 11/4/35 10/5/36
f 4/2/37 3/9/38 12/19/39 11/4/40
f 3/9/41 2/8/42 13/16/43 12/19/44
f 2/8/45 1/7/46 9/11/47 13/16/48
f 22/25/49 21/26/50 23/27/51 24/28/52 25/29/53 26/30/54
f 14/31/55 15/32/56 20/33/57
f 15/32/58 16/34/59 20/35/60
f 16/34/61 17/36/62 20/37/63
f 17/36/64 18/38/65 20/39/66
f 18/38/67 19/40/68 20/41/69
f 19/40/70 14/42/71 20/43/72
f 14/42/73 19/40/74 21/44/75 22/45/76
f 19/40/77 18/38/78 23/46/79 21/44/80
f 18/38/81 17/36/82 24/47/83 23/46/84
f 17/36/85 16/34/86 25/48/87 24/47/88
f 16/34/89 15/32/90 26/30/91 25/48/92
f 15/32/93 14/31/94 22/25/95 26/30/96
f 35/49/97 34/50/98 36/51/99 37/52/100 38/53/101 39/54/102
f 27/55/103 28/56/104 33/57/105
f 28/56/106 29/58/107 33/59/108
f 29/58/109 30/60/110 33/61/111
f 30/60/112 31/62/113 33/63/114
f 31/62/115 32/64/116 33/65/117
f 32/64/118 27/66/119 33/67/120
f 27/66/121 32/64/122 34/68/123 35/69/124
f 32/64/125 31/62/126 36/70/127 34/68/128
f 31/62/129 30/60/130 37/71/131 36/70/132
f 30/60/133 29/58/134 38/72/135 37/71/136
f 29/58/137 28/56/138 39/54/139 38/72/140
f 28/56/141 27/55/142 35/49/143 39/54/144
