# This file uses centimeters as units for non-parametric coordinates.

mtllib Mutant_Crystal_1.mtl
g default
v 12.983243 19.263233 -6.852287
v 12.397058 17.793575 -10.393463
v 9.134949 18.621695 -12.321234
v 6.459024 20.919476 -10.707829
v 7.045209 22.389133 -7.166653
v 10.307319 21.561014 -5.238883
v 11.626751 23.535822 -10.525026
v 0.718931 4.229683 3.541176
v 3.394855 1.931903 1.927772
v -2.543178 5.057803 1.613406
v -3.129364 3.588143 -1.927770
v -0.453439 1.290363 -3.541175
v 2.808670 0.462242 -1.613405
v 2.442578 27.288326 -4.230667
v -2.442576 27.288326 -4.230668
v -4.885152 27.288326 -0.000001
v -2.442577 27.288326 4.230667
v 2.442576 27.288326 4.230667
v 4.885152 27.288326 0.000000
v 0.000000 32.711670 0.000000
v 4.885152 0.000000 -0.000000
v 2.442578 0.000000 -4.230667
v 2.442576 0.000000 4.230667
v -2.442577 0.000000 4.230667
v -4.885152 0.000000 -0.000001
v -2.442576 0.000000 -4.230668
v -7.920035 24.356047 -2.073768
v -9.919927 23.039061 -2.073769
v -10.919872 22.380568 -0.000000
v -9.919928 23.039061 2.073768
v -7.920035 24.356047 2.073768
v -6.920090 25.014540 0.000000
v -10.382057 25.917770 0.000000
v 0.436559 13.843203 -0.000000
v -0.563386 13.184710 -2.073768
v -0.563387 13.184710 2.073768
v -2.563278 11.867723 2.073768
v -3.563224 11.209230 -0.000000
v -2.563278 11.867723 -2.073769
vt 0.126601 0.745541
vt 0.113639 0.745535
vt 0.152526 0.745551
vt 0.113835 0.687026
vt 0.126797 0.687039
vt 0.139564 0.745546
vt 0.074752 0.745520
vt 0.087715 0.745525
vt 0.100677 0.745530
vt 0.133042 0.761848
vt 0.074948 0.686987
vt 0.068478 0.675755
vt 0.074971 0.664536
vt 0.087933 0.664549
vt 0.094403 0.675781
vt 0.087910 0.687000
vt 0.139759 0.687052
vt 0.152721 0.687065
vt 0.100873 0.687013
vt 0.120080 0.761842
vt 0.107118 0.761837
vt 0.094155 0.761832
vt 0.081193 0.761827
vt 0.146004 0.761853
vt 0.074948 0.686987
vt 0.068478 0.675755
vt 0.074971 0.664536
vt 0.087933 0.664549
vt 0.094403 0.675781
vt 0.087910 0.687000
vt 0.074752 0.745520
vt 0.087715 0.745525
vt 0.081193 0.761827
vt 0.100677 0.745530
vt 0.094155 0.761832
vt 0.113639 0.745535
vt 0.107118 0.761837
vt 0.126601 0.745541
vt 0.120080 0.761842
vt 0.139564 0.745546
vt 0.133042 0.761848
vt 0.152526 0.745551
vt 0.146004 0.761853
vt 0.139759 0.687052
vt 0.152721 0.687065
vt 0.126797 0.687039
vt 0.113835 0.687026
vt 0.100873 0.687013
vt 0.074948 0.686987
vt 0.068478 0.675755
vt 0.074971 0.664536
vt 0.087933 0.664549
vt 0.094403 0.675781
vt 0.087910 0.687000
vt 0.074752 0.745520
vt 0.087715 0.745525
vt 0.081193 0.761827
vt 0.100677 0.745530
vt 0.094155 0.761832
vt 0.113639 0.745535
vt 0.107118 0.761837
vt 0.126601 0.745541
vt 0.120080 0.761842
vt 0.139564 0.745546
vt 0.133042 0.761848
vt 0.152526 0.745551
vt 0.146004 0.761853
vt 0.139759 0.687052
vt 0.152721 0.687065
vt 0.126797 0.687039
vt 0.113835 0.687026
vt 0.100873 0.687013
vn -0.442561 -0.799944 0.405252
vn -0.442561 -0.799944 0.405252
vn -0.442561 -0.799944 0.405252
vn -0.442561 -0.799944 0.405252
vn -0.442561 -0.799944 0.405252
vn -0.442561 -0.799944 0.405252
vn 0.969145 0.125143 -0.212363
vn 0.969145 0.125143 -0.212363
vn 0.969145 0.125143 -0.212363
vn 0.517477 0.049846 -0.854244
vn 0.517477 0.049846 -0.854244
vn 0.517477 0.049846 -0.854244
vn -0.179460 0.416728 -0.891141
vn -0.179460 0.416728 -0.891141
vn -0.179460 0.416728 -0.891141
vn -0.424729 0.858906 -0.286156
vn -0.424729 0.858906 -0.286156
vn -0.424729 0.858906 -0.286156
vn 0.026938 0.934202 0.355725
vn 0.026938 0.934202 0.355725
vn 0.026938 0.934202 0.355725
vn 0.723876 0.567320 0.392621
vn 0.723876 0.567320 0.392622
vn 0.723876 0.567320 0.392621
vn 0.572841 0.095497 0.814085
vn 0.572841 0.095497 0.814085
vn 0.572841 0.095497 0.814085
vn 0.572841 0.095497 0.814085
vn -0.311070 0.560805 0.767289
vn -0.311070 0.560805 0.767289
vn -0.311070 0.560805 0.767290
vn -0.311070 0.560805 0.767289
vn -0.883911 0.465308 -0.046795
vn -0.883911 0.465308 -0.046795
vn -0.883911 0.465308 -0.046795
vn -0.883911 0.465308 -0.046795
vn -0.572841 -0.095497 -0.814085
vn -0.572841 -0.095497 -0.814085
vn -0.572841 -0.095497 -0.814085
vn -0.572841 -0.095497 -0.814085
vn 0.311070 -0.560805 -0.767289
vn 0.311070 -0.560805 -0.767289
vn 0.311070 -0.560805 -0.767289
vn 0.311070 -0.560805 -0.767289
vn 0.883911 -0.465308 0.046795
vn 0.883911 -0.465308 0.046795
vn 0.883911 -0.465308 0.046795
vn 0.883911 -0.465308 0.046795
vn 0.000000 -1.000000 0.000000
vn 0.000000 -1.000000 0.000000
vn 0.000000 -1.000000 0.000000
vn 0.000000 -1.000000 0.000000
vn 0.000000 -1.000000 0.000000
vn 0.000000 -1.000000 0.000000
vn 0.000000 0.615073 -0.788470
vn 0.000000 0.615073 -0.788470
vn 0.000000 0.615073 -0.788470
vn -0.682835 0.615073 -0.394235
vn -0.682835 0.615073 -0.394235
vn -0.682835 0.615073 -0.394235
vn -0.682835 0.615073 0.394235
vn -0.682835 0.615073 0.394235
vn -0.682835 0.615073 0.394235
vn 0.000000 0.615073 0.788470
vn 0.000000 0.615073 0.788470
vn 0.000000 0.615073 0.788470
vn 0.682835 0.615073 0.394235
vn 0.682835 0.615073 0.394235
vn 0.682835 0.615073 0.394235
vn 0.682835 0.615073 -0.394235
vn 0.682835 0.615073 -0.394235
vn 0.682835 0.615073 -0.394235
vn 0.866026 0.000000 -0.500000
vn 0.866026 0.000000 -0.500000
vn 0.866026 0.000000 -0.500000
vn 0.866026 0.000000 -0.500000
vn 0.866025 -0.000000 0.500000
vn 0.866025 -0.000000 0.500000
vn 0.866025 -0.000000 0.500000
vn 0.866025 -0.000000 0.500000
vn 0.000000 0.000000 1.000000
vn 0.000000 0.000000 1.000000
vn 0.000000 0.000000 1.000000
vn 0.000000 0.000000 1.000000
vn -0.866026 0.000000 0.500000
vn -0.866026 0.000000 0.500000
vn -0.866026 0.000000 0.500000
vn -0.866026 0.000000 0.500000
vn -0.866025 0.000000 -0.500000
vn -0.866025 0.000000 -0.500000
vn -0.866025 0.000000 -0.500000
vn -0.866025 0.000000 -0.500000
vn 0.000000 0.000000 -1.000000
vn 0.000000 0.000000 -1.000000
vn 0.000000 0.000000 -1.000000
vn 0.000000 0.000000 -1.000000
vn 0.549986 -0.835174 0.000000
vn 0.549986 -0.835174 0.000000
vn 0.549986 -0.835174 0.000000
vn 0.549986 -0.835174 0.000000
vn 0.549986 -0.835174 0.000000
vn 0.549986 -0.835174 0.000000
vn -0.338282 0.513693 -0.788470
vn -0.338282 0.513693 -0.788470
vn -0.338282 0.513693 -0.788470
vn -0.908568 0.138144 -0.394235
vn -0.908568 0.138144 -0.394235
vn -0.908568 0.138144 -0.394235
vn -0.908568 0.138143 0.394235
vn -0.908568 0.138143 0.394235
vn -0.908568 0.138143 0.394235
vn -0.338282 0.513693 0.788470
vn -0.338282 0.513693 0.788470
vn -0.338282 0.513693 0.788470
vn 0.232004 0.889243 0.394235
vn 0.232004 0.889243 0.394235
vn 0.232004 0.889243 0.394235
vn 0.232004 0.889243 -0.394235
vn 0.232004 0.889243 -0.394235
vn 0.232004 0.889243 -0.394235
vn 0.723282 0.476302 -0.500000
vn 0.723282 0.476302 -0.500000
vn 0.723282 0.476302 -0.500000
vn 0.723282 0.476302 -0.500000
vn 0.723282 0.476302 0.500000
vn 0.723282 0.476302 0.500000
vn 0.723282 0.476302 0.500000
vn 0.723282 0.476302 0.500000
vn 0.000000 0.000000 1.000000
vn 0.000000 0.000000 1.000000
vn 0.000000 0.000000 1.000000
vn 0.000000 0.000000 1.000000
vn -0.723282 -0.476302 0.500000
vn -0.723282 -0.476302 0.500000
vn -0.723282 -0.476302 0.500000
vn -0.723282 -0.476302 0.500000
vn -0.723282 -0.476302 -0.500000
vn -0.723282 -0.476302 -0.500000
vn -0.723282 -0.476302 -0.500000
vn -0.723282 -0.476302 -0.500000
vn 0.000000 0.000000 -1.000000
vn 0.000000 0.000000 -1.000000
vn 0.000000 0.000000 -1.000000
vn 0.000000 0.000000 -1.000000
s off
g pCone4
usemtl initialShadingGroup
f 9/11/1 8/12/2 10/13/3 11/14/4 12/15/5 13/16/6
f 1/7/7 2/8/8 7/23/9
f 2/8/10 3/9/11 7/22/12
f 3/9/13 4/2/14 7/21/15
f 4/2/16 5/1/17 7/20/18
f 5/1/19 6/6/20 7/10/21
f 6/6/22 1/3/23 7/24/24
f 1/3/25 6/6/26 8/17/27 9/18/28
f 6/6/29 5/1/30 10/5/31 8/17/32
f 5/1/33 4/2/34 11/4/35 10/5/36
f 4/2/37 3/9/38 12/19/39 11/4/40
f 3/9/41 2/8/42 13/16/43 12/19/44
f 2/8/45 1/7/46 9/11/47 13/16/48
f 22/25/49 21/26/50 23/27/51 24/28/52 25/29/53 26/30/54
f 14/31/55 15/32/56 20/33/57
f 15/32/58 16/34/59 20/35/60
f 16/34/61 17/36/62 20/37/63
f 17/36/64 18/38/65 20/39/66
f 18/38/67 19/40/68 20/41/69
f 19/40/70 14/42/71 20/43/72
f 14/42/73 19/40/74 21/44/75 22/45/76
f 19/40/77 18/38/78 23/46/79 21/44/80
f 18/38/81 17/36/82 24/47/83 23/46/84
f 17/36/85 16/34/86 25/48/87 24/47/88
f 16/34/89 15/32/90 26/30/91 25/48/92
f 15/32/93 14/31/94 22/25/95 26/30/96
f 35/49/97 34/50/98 36/51/99 37/52/100 38/53/101 39/54/102
f 27/55/103 28/56/104 33/57/105
f 28/56/106 29/58/107 33/59/108
f 29/58/109 30/60/110 33/61/111
f 30/60/112 31/62/113 33/63/114
f 31/62/115 32/64/116 33/65/117
f 32/64/118 27/66/119 33/67/120
f 27/66/121 32/64/122 34/68/123 35/69/124
f 32/64/125 31/62/126 36/70/127 34/68/128
f 31/62/129 30/60/130 37/71/131 36/70/132
f 30/60/133 29/58/134 38/72/135 37/71/136
f 29/58/137 28/56/138 39/54/139 38/72/140
f 28/56/141 27/55/142 35/49/143 39/54/144
