# This file uses centimeters as units for non-parametric coordinates.

mtllib Mutant_Crystal_2.mtl
g default
v 12.983243 19.263233 -6.852287
v 12.397058 17.793575 -10.393463
v 9.134949 18.621695 -12.321234
v 6.459024 20.919476 -10.707829
v 7.045209 22.389133 -7.166653
v 10.307319 21.561014 -5.238883
v 11.626751 23.535822 -10.525026
v 0.718931 4.229683 3.541176
v 3.394855 1.931903 1.927772
v -2.543178 5.057803 1.613406
v -3.129364 3.588143 -1.927770
v -0.453439 1.290363 -3.541175
v 2.808670 0.462242 -1.613405
v 2.442578 27.288326 -4.230667
v -2.442576 27.288326 -4.230668
v -4.885152 27.288326 -0.000001
v -2.442577 27.288326 4.230667
v 2.442576 27.288326 4.230667
v 4.885152 27.288326 0.000000
v 0.000000 32.711670 0.000000
v 4.885152 0.000000 -0.000000
v 2.442578 0.000000 -4.230667
v 2.442576 0.000000 4.230667
v -2.442577 0.000000 4.230667
v -4.885152 0.000000 -0.000001
v -2.442576 0.000000 -4.230668
v -7.920035 24.356047 -2.073768
v -9.919927 23.039061 -2.073769
v -10.919872 22.380568 -0.000000
v -9.919928 23.039061 2.073768
v -7.920035 24.356047 2.073768
v -6.920090 25.014540 0.000000
v -10.382057 25.917770 0.000000
v 0.436559 13.843203 -0.000000
v -0.563386 13.184710 -2.073768
v -0.563387 13.184710 2.073768
v -2.563278 11.867723 2.073768
v -3.563224 11.209230 -0.000000
v -2.563278 11.867723 -2.073769
vt 0.693082 0.349731
vt 0.680120 0.349725
vt 0.719006 0.349741
vt 0.680315 0.291216
vt 0.693277 0.291229
vt 0.706044 0.349736
vt 0.641233 0.349710
vt 0.654195 0.349715
vt 0.667157 0.349720
vt 0.699522 0.366038
vt 0.641429 0.291177
vt 0.634959 0.279945
vt 0.641451 0.268726
vt 0.654413 0.268739
vt 0.660883 0.279971
vt 0.654391 0.291190
vt 0.706240 0.291242
vt 0.719202 0.291255
vt 0.667353 0.291203
vt 0.686560 0.366032
vt 0.673598 0.366027
vt 0.660636 0.366022
vt 0.647674 0.366017
vt 0.712485 0.366043
vt 0.641429 0.291177
vt 0.634959 0.279945
vt 0.641451 0.268726
vt 0.654413 0.268739
vt 0.660883 0.279971
vt 0.654391 0.291190
vt 0.641233 0.349710
vt 0.654195 0.349715
vt 0.647674 0.366017
vt 0.667157 0.349720
vt 0.660636 0.366022
vt 0.680120 0.349725
vt 0.673598 0.366027
vt 0.693082 0.349731
vt 0.686560 0.366032
vt 0.706044 0.349736
vt 0.699522 0.366038
vt 0.719006 0.349741
vt 0.712485 0.366043
vt 0.706240 0.291242
vt 0.719202 0.291255
vt 0.693277 0.291229
vt 0.680315 0.291216
vt 0.667353 0.291203
vt 0.641429 0.291177
vt 0.634959 0.279945
vt 0.641451 0.268726
vt 0.654413 0.268739
vt 0.660883 0.279971
vt 0.654391 0.291190
vt 0.641233 0.349710
vt 0.654195 0.349715
vt 0.647674 0.366017
vt 0.667157 0.349720
vt 0.660636 0.366022
vt 0.680120 0.349725
vt 0.673598 0.366027
vt 0.693082 0.349731
vt 0.686560 0.366032
vt 0.706044 0.349736
vt 0.699522 0.366038
vt 0.719006 0.349741
vt 0.712485 0.366043
vt 0.706240 0.291242
vt 0.719202 0.291255
vt 0.693277 0.291229
vt 0.680315 0.291216
vt 0.667353 0.291203
vn -0.442561 -0.799944 0.405252
vn -0.442561 -0.799944 0.405252
vn -0.442561 -0.799944 0.405252
vn -0.442561 -0.799944 0.405252
vn -0.442561 -0.799944 0.405252
vn -0.442561 -0.799944 0.405252
vn 0.969145 0.125143 -0.212363
vn 0.969145 0.125143 -0.212363
vn 0.969145 0.125143 -0.212363
vn 0.517477 0.049846 -0.854244
vn 0.517477 0.049846 -0.854244
vn 0.517477 0.049846 -0.854244
vn -0.179460 0.416728 -0.891141
vn -0.179460 0.416728 -0.891141
vn -0.179460 0.416728 -0.891141
vn -0.424729 0.858906 -0.286156
vn -0.424729 0.858906 -0.286156
vn -0.424729 0.858906 -0.286156
vn 0.026938 0.934202 0.355725
vn 0.026938 0.934202 0.355725
vn 0.026938 0.934202 0.355725
vn 0.723876 0.567320 0.392621
vn 0.723876 0.567320 0.392622
vn 0.723876 0.567320 0.392621
vn 0.572841 0.095497 0.814085
vn 0.572841 0.095497 0.814085
vn 0.572841 0.095497 0.814085
vn 0.572841 0.095497 0.814085
vn -0.311070 0.560805 0.767289
vn -0.311070 0.560805 0.767289
vn -0.311070 0.560805 0.767290
vn -0.311070 0.560805 0.767289
vn -0.883911 0.465308 -0.046795
vn -0.883911 0.465308 -0.046795
vn -0.883911 0.465308 -0.046795
vn -0.883911 0.465308 -0.046795
vn -0.572841 -0.095497 -0.814085
vn -0.572841 -0.095497 -0.814085
vn -0.572841 -0.095497 -0.814085
vn -0.572841 -0.095497 -0.814085
vn 0.311070 -0.560805 -0.767289
vn 0.311070 -0.560805 -0.767289
vn 0.311070 -0.560805 -0.767289
vn 0.311070 -0.560805 -0.767289
vn 0.883911 -0.465308 0.046795
vn 0.883911 -0.465308 0.046795
vn 0.883911 -0.465308 0.046795
vn 0.883911 -0.465308 0.046795
vn 0.000000 -1.000000 0.000000
vn 0.000000 -1.000000 0.000000
vn 0.000000 -1.000000 0.000000
vn 0.000000 -1.000000 0.000000
vn 0.000000 -1.000000 0.000000
vn 0.000000 -1.000000 0.000000
vn 0.000000 0.615073 -0.788470
vn 0.000000 0.615073 -0.788470
vn 0.000000 0.615073 -0.788470
vn -0.682835 0.615073 -0.394235
vn -0.682835 0.615073 -0.394235
vn -0.682835 0.615073 -0.394235
vn -0.682835 0.615073 0.394235
vn -0.682835 0.615073 0.394235
vn -0.682835 0.615073 0.394235
vn 0.000000 0.615073 0.788470
vn 0.000000 0.615073 0.788470
vn 0.000000 0.615073 0.788470
vn 0.682835 0.615073 0.394235
vn 0.682835 0.615073 0.394235
vn 0.682835 0.615073 0.394235
vn 0.682835 0.615073 -0.394235
vn 0.682835 0.615073 -0.394235
vn 0.682835 0.615073 -0.394235
vn 0.866026 0.000000 -0.500000
vn 0.866026 0.000000 -0.500000
vn 0.866026 0.000000 -0.500000
vn 0.866026 0.000000 -0.500000
vn 0.866025 -0.000000 0.500000
vn 0.866025 -0.000000 0.500000
vn 0.866025 -0.000000 0.500000
vn 0.866025 -0.000000 0.500000
vn 0.000000 0.000000 1.000000
vn 0.000000 0.000000 1.000000
vn 0.000000 0.000000 1.000000
vn 0.000000 0.000000 1.000000
vn -0.866026 0.000000 0.500000
vn -0.866026 0.000000 0.500000
vn -0.866026 0.000000 0.500000
vn -0.866026 0.000000 0.500000
vn -0.866025 0.000000 -0.500000
vn -0.866025 0.000000 -0.500000
vn -0.866025 0.000000 -0.500000
vn -0.866025 0.000000 -0.500000
vn 0.000000 0.000000 -1.000000
vn 0.000000 0.000000 -1.000000
vn 0.000000 0.000000 -1.000000
vn 0.000000 0.000000 -1.000000
vn 0.549986 -0.835174 0.000000
vn 0.549986 -0.835174 0.000000
vn 0.549986 -0.835174 0.000000
vn 0.549986 -0.835174 0.000000
vn 0.549986 -0.835174 0.000000
vn 0.549986 -0.835174 0.000000
vn -0.338282 0.513693 -0.788470
vn -0.338282 0.513693 -0.788470
vn -0.338282 0.513693 -0.788470
vn -0.908568 0.138144 -0.394235
vn -0.908568 0.138144 -0.394235
vn -0.908568 0.138144 -0.394235
vn -0.908568 0.138143 0.394235
vn -0.908568 0.138143 0.394235
vn -0.908568 0.138143 0.394235
vn -0.338282 0.513693 0.788470
vn -0.338282 0.513693 0.788470
vn -0.338282 0.513693 0.788470
vn 0.232004 0.889243 0.394235
vn 0.232004 0.889243 0.394235
vn 0.232004 0.889243 0.394235
vn 0.232004 0.889243 -0.394235
vn 0.232004 0.889243 -0.394235
vn 0.232004 0.889243 -0.394235
vn 0.723282 0.476302 -0.500000
vn 0.723282 0.476302 -0.500000
vn 0.723282 0.476302 -0.500000
vn 0.723282 0.476302 -0.500000
vn 0.723282 0.476302 0.500000
vn 0.723282 0.476302 0.500000
vn 0.723282 0.476302 0.500000
vn 0.723282 0.476302 0.500000
vn 0.000000 0.000000 1.000000
vn 0.000000 0.000000 1.000000
vn 0.000000 0.000000 1.000000
vn 0.000000 0.000000 1.000000
vn -0.723282 -0.476302 0.500000
vn -0.723282 -0.476302 0.500000
vn -0.723282 -0.476302 0.500000
vn -0.723282 -0.476302 0.500000
vn -0.723282 -0.476302 -0.500000
vn -0.723282 -0.476302 -0.500000
vn -0.723282 -0.476302 -0.500000
vn -0.723282 -0.476302 -0.500000
vn 0.000000 0.000000 -1.000000
vn 0.000000 0.000000 -1.000000
vn 0.000000 0.000000 -1.000000
vn 0.000000 0.000000 -1.000000
s off
g pCone4
usemtl initialShadingGroup
f 9/11/1 8/12/2 10/13/3 11/14/4 12/15/5 13/16/6
f 1/7/7 2/8/8 7/23/9
f 2/8/10 3/9/11 7/22/12
f 3/9/13 4/2/14 7/21/15
f 4/2/16 5/1/17 7/20/18
f 5/1/19 6/6/20 7/10/21
f 6/6/22 1/3/23 7/24/24
f 1/3/25 6/6/26 8/17/27 9/18/28
f 6/6/29 5/1/30 10/5/31 8/17/32
f 5/1/33 4/2/34 11/4/35 10/5/36
f 4/2/37 3/9/38 12/19/39 11/4/40
f 3/9/41 2/8/42 13/16/43 12/19/44
f 2/8/45 1/7/46 9/11/47 13/16/48
f 22/25/49 21/26/50 23/27/51 24/28/52 25/29/53 26/30/54
f 14/31/55 15/32/56 20/33/57
f 15/32/58 16/34/59 20/35/60
f 16/34/61 17/36/62 20/37/63
f 17/36/64 18/38/65 20/39/66
f 18/38/67 19/40/68 20/41/69
f 19/40/70 14/42/71 20/43/72
f 14/42/73 19/40/74 21/44/75 22/45/76
f 19/40/77 18/38/78 23/46/79 21/44/80
f 18/38/81 17/36/82 24/47/83 23/46/84
f 17/36/85 16/34/86 25/48/87 24/47/88
f 16/34/89 15/32/90 26/30/91 25/48/92
f 15/32/93 14/31/94 22/25/95 26/30/96
f 35/49/97 34/50/98 36/51/99 37/52/100 38/53/101 39/54/102
f 27/55/103 28/56/104 33/57/105
f 28/56/106 29/58/107 33/59/108
f 29/58/109 30/60/110 33/61/111
f 30/60/112 31/62/113 33/63/114
f 31/62/115 32/64/116 33/65/117
f 32/64/118 27/66/119 33/67/120
f 27/66/121 32/64/122 34/68/123 35/69/124
f 32/64/125 31/62/126 36/70/127 34/68/128
f 31/62/129 30/60/130 37/71/131 36/70/132
f 30/60/133 29/58/134 38/72/135 37/71/136
f 29/58/137 28/56/138 39/54/139 38/72/140
f 28/56/141 27/55/142 35/49/143 39/54/144
