# This file uses centimeters as units for non-parametric coordinates.

mtllib Solo Crystal_1.mtl
g default
v 3.981675 46.264147 -3.974672
v 0.007004 46.264147 -5.621032
v -3.967669 46.264147 -3.974672
v -5.614028 46.264147 0.000000
v -3.967669 46.264147 3.974672
v 0.007004 46.264147 5.621032
v 3.981676 46.264147 3.974672
v 5.628036 46.264147 0.000000
v 0.007004 56.349580 0.000000
v 8.576072 -0.000001 -0.000000
v 6.066249 -0.000001 -6.059246
v 6.066250 -0.000001 6.059246
v 0.007004 -0.000001 8.569068
v -6.052242 -0.000001 6.059246
v -8.562064 -0.000001 -0.000000
v -6.052242 -0.000001 -6.059246
v 0.007004 -0.000001 -8.569068
vt 0.700970 0.364732
vt 0.701012 0.287642
vt 0.627118 0.287560
vt 0.627076 0.364650
vt 0.701006 0.298655
vt 0.627112 0.298573
vt 0.701000 0.309668
vt 0.627106 0.309585
vt 0.700976 0.353719
vt 0.700982 0.342706
vt 0.700988 0.331693
vt 0.700994 0.320680
vt 0.707447 0.293165
vt 0.600507 0.331597
vt 0.600513 0.320584
vt 0.608304 0.312801
vt 0.619317 0.312807
vt 0.627100 0.320598
vt 0.627094 0.331611
vt 0.619303 0.339394
vt 0.608290 0.339388
vt 0.627088 0.342624
vt 0.627082 0.353637
vt 0.700965 0.375744
vt 0.627070 0.375662
vt 0.707441 0.304178
vt 0.707435 0.315191
vt 0.707429 0.326204
vt 0.707423 0.337217
vt 0.707417 0.348230
vt 0.707411 0.359242
vt 0.707405 0.370255
vn 0.000000 -1.000000 -0.000000
vn 0.000000 -1.000000 -0.000000
vn 0.000000 -1.000000 -0.000000
vn 0.000000 -1.000000 -0.000000
vn 0.000000 -1.000000 -0.000000
vn 0.000000 -1.000000 -0.000000
vn 0.000000 -1.000000 -0.000000
vn 0.000000 -1.000000 -0.000000
vn 0.340228 0.457792 -0.821384
vn 0.340228 0.457792 -0.821384
vn 0.340228 0.457792 -0.821384
vn -0.340228 0.457792 -0.821384
vn -0.340228 0.457792 -0.821384
vn -0.340228 0.457792 -0.821384
vn -0.821384 0.457792 -0.340228
vn -0.821384 0.457792 -0.340228
vn -0.821384 0.457792 -0.340228
vn -0.821384 0.457792 0.340228
vn -0.821384 0.457792 0.340228
vn -0.821384 0.457792 0.340228
vn -0.340228 0.457792 0.821384
vn -0.340228 0.457792 0.821384
vn -0.340228 0.457792 0.821384
vn 0.340228 0.457792 0.821384
vn 0.340228 0.457792 0.821384
vn 0.340228 0.457792 0.821384
vn 0.821384 0.457792 0.340228
vn 0.821384 0.457792 0.340228
vn 0.821384 0.457792 0.340228
vn 0.821384 0.457792 -0.340228
vn 0.821384 0.457792 -0.340228
vn 0.821384 0.457792 -0.340228
vn 0.922283 0.058769 -0.382022
vn 0.922283 0.058769 -0.382022
vn 0.922283 0.058770 -0.382022
vn 0.922283 0.058770 -0.382022
vn 0.922283 0.058770 0.382022
vn 0.922283 0.058770 0.382022
vn 0.922283 0.058770 0.382022
vn 0.922283 0.058770 0.382022
vn 0.382022 0.058770 0.922283
vn 0.382022 0.058770 0.922283
vn 0.382022 0.058770 0.922283
vn 0.382022 0.058770 0.922283
vn -0.382022 0.058769 0.922283
vn -0.382022 0.058769 0.922283
vn -0.382022 0.058770 0.922283
vn -0.382022 0.058770 0.922283
vn -0.922283 0.058769 0.382022
vn -0.922283 0.058769 0.382022
vn -0.922283 0.058769 0.382022
vn -0.922283 0.058769 0.382022
vn -0.922283 0.058769 -0.382022
vn -0.922283 0.058769 -0.382022
vn -0.922283 0.058769 -0.382022
vn -0.922283 0.058769 -0.382022
vn -0.382022 0.058769 -0.922283
vn -0.382022 0.058769 -0.922283
vn -0.382022 0.058770 -0.922283
vn -0.382022 0.058770 -0.922283
vn 0.382022 0.058770 -0.922283
vn 0.382022 0.058770 -0.922283
vn 0.382022 0.058770 -0.922283
vn 0.382022 0.058770 -0.922283
s off
g pCone2
usemtl initialShadingGroup
f 11/14/1 10/15/2 12/16/3 13/17/4 14/18/5 15/19/6 16/20/7 17/21/8
f 1/1/9 2/9/10 9/31/11
f 2/9/12 3/10/13 9/30/14
f 3/10/15 4/11/16 9/29/17
f 4/11/18 5/12/19 9/28/20
f 5/12/21 6/7/22 9/27/23
f 6/7/24 7/5/25 9/26/26
f 7/5/27 8/2/28 9/13/29
f 8/24/30 1/1/31 9/32/32
f 1/1/33 8/24/34 10/25/35 11/4/36
f 8/2/37 7/5/38 12/6/39 10/3/40
f 7/5/41 6/7/42 13/8/43 12/6/44
f 6/7/45 5/12/46 14/18/47 13/8/48
f 5/12/49 4/11/50 15/19/51 14/18/52
f 4/11/53 3/10/54 16/22/55 15/19/56
f 3/10/57 2/9/58 17/23/59 16/22/60
f 2/9/61 1/1/62 11/4/63 17/23/64
