# This file uses centimeters as units for non-parametric coordinates.

mtllib Solo Crystal_2.mtl
g default
v 3.981675 46.264147 -3.974672
v 0.007004 46.264147 -5.621032
v -3.967669 46.264147 -3.974672
v -5.614028 46.264147 0.000000
v -3.967669 46.264147 3.974672
v 0.007004 46.264147 5.621032
v 3.981676 46.264147 3.974672
v 5.628036 46.264147 0.000000
v 0.007004 56.349580 0.000000
v 8.576072 -0.000001 -0.000000
v 6.066249 -0.000001 -6.059246
v 6.066250 -0.000001 6.059246
v 0.007004 -0.000001 8.569068
v -6.052242 -0.000001 6.059246
v -8.562064 -0.000001 -0.000000
v -6.052242 -0.000001 -6.059246
v 0.007004 -0.000001 -8.569068
vt 0.140495 0.742488
vt 0.140537 0.665398
vt 0.066643 0.665316
vt 0.066601 0.742406
vt 0.140531 0.676411
vt 0.066637 0.676329
vt 0.140525 0.687424
vt 0.066631 0.687342
vt 0.140501 0.731475
vt 0.140507 0.720462
vt 0.140513 0.709449
vt 0.140519 0.698436
vt 0.146971 0.670922
vt 0.040032 0.709353
vt 0.040038 0.698340
vt 0.047829 0.690557
vt 0.058842 0.690563
vt 0.066625 0.698354
vt 0.066619 0.709367
vt 0.058827 0.717150
vt 0.047815 0.717144
vt 0.066613 0.720380
vt 0.066607 0.731393
vt 0.140489 0.753501
vt 0.066595 0.753419
vt 0.146965 0.681934
vt 0.146959 0.692947
vt 0.146954 0.703960
vt 0.146948 0.714973
vt 0.146942 0.725986
vt 0.146936 0.736999
vt 0.146930 0.748011
vn 0.000000 -1.000000 -0.000000
vn 0.000000 -1.000000 -0.000000
vn 0.000000 -1.000000 -0.000000
vn 0.000000 -1.000000 -0.000000
vn 0.000000 -1.000000 -0.000000
vn 0.000000 -1.000000 -0.000000
vn 0.000000 -1.000000 -0.000000
vn 0.000000 -1.000000 -0.000000
vn 0.340228 0.457792 -0.821384
vn 0.340228 0.457792 -0.821384
vn 0.340228 0.457792 -0.821384
vn -0.340228 0.457792 -0.821384
vn -0.340228 0.457792 -0.821384
vn -0.340228 0.457792 -0.821384
vn -0.821384 0.457792 -0.340228
vn -0.821384 0.457792 -0.340228
vn -0.821384 0.457792 -0.340228
vn -0.821384 0.457792 0.340228
vn -0.821384 0.457792 0.340228
vn -0.821384 0.457792 0.340228
vn -0.340228 0.457792 0.821384
vn -0.340228 0.457792 0.821384
vn -0.340228 0.457792 0.821384
vn 0.340228 0.457792 0.821384
vn 0.340228 0.457792 0.821384
vn 0.340228 0.457792 0.821384
vn 0.821384 0.457792 0.340228
vn 0.821384 0.457792 0.340228
vn 0.821384 0.457792 0.340228
vn 0.821384 0.457792 -0.340228
vn 0.821384 0.457792 -0.340228
vn 0.821384 0.457792 -0.340228
vn 0.922283 0.058769 -0.382022
vn 0.922283 0.058769 -0.382022
vn 0.922283 0.058770 -0.382022
vn 0.922283 0.058770 -0.382022
vn 0.922283 0.058770 0.382022
vn 0.922283 0.058770 0.382022
vn 0.922283 0.058770 0.382022
vn 0.922283 0.058770 0.382022
vn 0.382022 0.058770 0.922283
vn 0.382022 0.058770 0.922283
vn 0.382022 0.058770 0.922283
vn 0.382022 0.058770 0.922283
vn -0.382022 0.058769 0.922283
vn -0.382022 0.058769 0.922283
vn -0.382022 0.058770 0.922283
vn -0.382022 0.058770 0.922283
vn -0.922283 0.058769 0.382022
vn -0.922283 0.058769 0.382022
vn -0.922283 0.058769 0.382022
vn -0.922283 0.058769 0.382022
vn -0.922283 0.058769 -0.382022
vn -0.922283 0.058769 -0.382022
vn -0.922283 0.058769 -0.382022
vn -0.922283 0.058769 -0.382022
vn -0.382022 0.058769 -0.922283
vn -0.382022 0.058769 -0.922283
vn -0.382022 0.058770 -0.922283
vn -0.382022 0.058770 -0.922283
vn 0.382022 0.058770 -0.922283
vn 0.382022 0.058770 -0.922283
vn 0.382022 0.058770 -0.922283
vn 0.382022 0.058770 -0.922283
s off
g pCone2
usemtl initialShadingGroup
f 11/14/1 10/15/2 12/16/3 13/17/4 14/18/5 15/19/6 16/20/7 17/21/8
f 1/1/9 2/9/10 9/31/11
f 2/9/12 3/10/13 9/30/14
f 3/10/15 4/11/16 9/29/17
f 4/11/18 5/12/19 9/28/20
f 5/12/21 6/7/22 9/27/23
f 6/7/24 7/5/25 9/26/26
f 7/5/27 8/2/28 9/13/29
f 8/24/30 1/1/31 9/32/32
f 1/1/33 8/24/34 10/25/35 11/4/36
f 8/2/37 7/5/38 12/6/39 10/3/40
f 7/5/41 6/7/42 13/8/43 12/6/44
f 6/7/45 5/12/46 14/18/47 13/8/48
f 5/12/49 4/11/50 15/19/51 14/18/52
f 4/11/53 3/10/54 16/22/55 15/19/56
f 3/10/57 2/9/58 17/23/59 16/22/60
f 2/9/61 1/1/62 11/4/63 17/23/64
