# This file uses centimeters as units for non-parametric coordinates.

mtllib spike 5.mtl
g default
v -0.000000 0.135834 -5.028867
v -0.000000 3.011777 -5.544240
v -0.000000 6.711289 -22.958923
v -0.000000 28.879196 -28.939318
v -0.000000 46.407528 -7.188293
v 0.000000 31.754215 10.908703
v 0.000000 15.413268 6.523434
v 0.000000 13.308451 -7.283946
v -0.000000 23.770571 -15.095897
v 0.000000 32.345230 -8.257797
v 0.000000 29.539553 -0.864938
v -3.443852 0.054242 -0.338435
v -3.590461 7.114681 -3.852063
v -3.093416 9.718435 -20.179930
v -2.686968 27.687494 -25.214020
v -2.626423 43.317051 -7.393747
v -1.806889 31.003740 8.302604
v -1.878978 17.987392 4.391889
v -1.511119 15.725941 -6.713370
v -1.164885 23.717817 -13.066536
v -0.945353 31.351603 -7.926264
v -0.651730 29.205200 -1.380527
v -0.000000 -0.309573 5.181662
v -0.000000 11.247330 -0.282720
v -0.000000 13.308155 -17.327572
v -0.000000 26.673815 -20.906275
v -0.000000 39.924114 -7.040133
v -0.000000 30.237608 5.832475
v -0.000000 19.459429 2.845421
v -0.000000 17.468058 -5.826410
v -0.000000 23.869919 -11.581360
v -0.000000 30.412128 -7.698434
v 0.000000 28.663452 -2.161281
v 3.733513 -0.254400 -0.034097
v 3.013318 7.651403 -3.889761
v 3.000000 10.845146 -20.102928
v 3.012551 27.604959 -23.315659
v 2.854068 42.727688 -6.787608
v 1.813356 30.889479 8.153937
v 1.705655 17.192245 4.006598
v 1.958435 15.202559 -6.278153
v 1.510101 23.859747 -12.745037
v 0.609545 31.291294 -7.742521
v 0.321743 29.127069 -1.611848
vt 0.318100 0.728002
vt 0.361471 0.741957
vt 0.303069 0.788158
vt 0.463818 0.720988
vt 0.464899 0.730985
vt 0.402967 0.788085
vt 0.401149 0.800765
vt 0.552703 0.725826
vt 0.557576 0.735797
vt 0.559841 0.739462
vt 0.532171 0.772941
vt 0.309669 0.726889
vt 0.322495 0.749676
vt 0.313387 0.768429
vt 0.312809 0.784097
vt 0.409553 0.758553
vt 0.409093 0.772354
vt 0.411820 0.784064
vt 0.410616 0.795718
vt 0.506697 0.758127
vt 0.504174 0.771571
vt 0.504281 0.783038
vt 0.348215 0.720079
vt 0.355716 0.748348
vt 0.360890 0.765467
vt 0.359570 0.780632
vt 0.454857 0.755646
vt 0.454600 0.768490
vt 0.455482 0.779896
vt 0.453456 0.790697
vt 0.546687 0.754346
vt 0.549107 0.768904
vt 0.547137 0.781870
vt 0.371635 0.732774
vt 0.365737 0.738530
vt 0.309924 0.763659
vt 0.361151 0.755691
vt 0.406700 0.758893
vt 0.405326 0.774529
vt 0.457920 0.751367
vt 0.456428 0.766033
vt 0.504010 0.756757
vt 0.501939 0.772597
vt 0.498856 0.790105
vt 0.550614 0.784077
vt 0.532171 0.772941
vt 0.516159 0.772941
vt 0.491897 0.780462
vt 0.500263 0.799781
vt 0.552202 0.771315
vt 0.554213 0.750242
vt 0.545706 0.738396
vt 0.508827 0.750635
vt 0.505536 0.770388
vt 0.504533 0.780551
vt 0.551108 0.756589
vt 0.552908 0.738337
vt 0.540617 0.730764
vt 0.493903 0.740307
vt 0.504661 0.758211
vt 0.507661 0.769717
vt 0.460188 0.793548
vt 0.555057 0.728745
vt 0.540291 0.719374
vt 0.494569 0.728948
vt 0.397727 0.791930
vt 0.451943 0.752112
vt 0.461103 0.783850
vt 0.462503 0.768359
vt 0.418749 0.802979
vt 0.409409 0.765685
vt 0.395290 0.779579
vt 0.451140 0.738705
vt 0.459053 0.771169
vt 0.460375 0.751774
vt 0.416243 0.792212
vt 0.412130 0.752913
vt 0.394798 0.768486
vt 0.408560 0.785547
vt 0.459846 0.758904
vt 0.462078 0.738427
vt 0.449484 0.727787
vt 0.413667 0.738145
vt 0.291921 0.798157
vt 0.410406 0.770502
vt 0.366168 0.783816
vt 0.461154 0.725632
vt 0.447345 0.716944
vt 0.314463 0.763972
vt 0.294024 0.781523
vt 0.353755 0.736584
vt 0.367854 0.769219
vt 0.369397 0.752473
vt 0.321173 0.791611
vt 0.311197 0.751136
vt 0.295324 0.765094
vt 0.317447 0.781627
vt 0.366611 0.748228
vt 0.367976 0.741825
vt 0.350307 0.726311
vt 0.307530 0.740168
vt 0.300309 0.743687
vt 0.334873 0.723417
vt 0.320438 0.765113
vt 0.296591 0.736452
vt 0.512892 0.785534
vt 0.516159 0.772941
vt 0.532171 0.772941
vt 0.512004 0.773878
vt 0.545693 0.754472
vt 0.548771 0.751554
vt 0.515332 0.760753
vt 0.545695 0.742659
vt 0.546517 0.741154
vt 0.421535 0.798563
vt 0.544159 0.731555
vt 0.547883 0.731994
vt 0.422096 0.787657
vt 0.450325 0.769890
vt 0.455162 0.769286
vt 0.417974 0.775067
vt 0.449601 0.754853
vt 0.454350 0.754848
vt 0.419309 0.761397
vt 0.451881 0.741919
vt 0.455580 0.740761
vt 0.327155 0.788098
vt 0.451473 0.729537
vt 0.455453 0.727146
vt 0.327461 0.772406
vt 0.352434 0.757355
vt 0.360995 0.755124
vt 0.340532 0.760332
vt 0.357544 0.738407
vt 0.359410 0.737043
vt 0.362169 0.725711
vt 0.495763 0.780846
vt 0.516159 0.772941
vt 0.508484 0.767467
vt 0.512108 0.755801
vt 0.541799 0.744699
vt 0.508116 0.753870
vt 0.500673 0.741548
vt 0.542792 0.731600
vt 0.403681 0.792490
vt 0.501249 0.730646
vt 0.538477 0.721239
vt 0.402432 0.779827
vt 0.414411 0.771782
vt 0.445793 0.757718
vt 0.399789 0.768790
vt 0.415376 0.758049
vt 0.444753 0.743794
vt 0.297869 0.798394
vt 0.416973 0.743427
vt 0.449320 0.729508
vt 0.301228 0.781892
vt 0.317913 0.770012
vt 0.447934 0.717840
vt 0.303319 0.765375
vt 0.315717 0.757494
vt 0.346751 0.742495
vt 0.315597 0.748034
vt 0.315994 0.742917
vt 0.340756 0.734312
vt 0.327908 0.724977
vn -0.726842 -0.267260 -0.632672
vn -0.726842 -0.267260 -0.632672
vn -0.726842 -0.267260 -0.632672
vn -0.726842 -0.267260 -0.632672
vn -0.761870 -0.634598 -0.129769
vn -0.761870 -0.634598 -0.129769
vn -0.761870 -0.634598 -0.129769
vn -0.761870 -0.634598 -0.129769
vn -0.759651 -0.164938 -0.629067
vn -0.759651 -0.164938 -0.629068
vn -0.759651 -0.164938 -0.629067
vn -0.759651 -0.164938 -0.629067
vn -0.721897 0.530952 -0.443795
vn -0.721897 0.530952 -0.443795
vn -0.721897 0.530952 -0.443795
vn -0.721897 0.530952 -0.443795
vn -0.731120 0.524516 0.436287
vn -0.731120 0.524516 0.436287
vn -0.731120 0.524516 0.436287
vn -0.731120 0.524516 0.436287
vn -0.807929 -0.158409 0.567589
vn -0.807929 -0.158409 0.567589
vn -0.807929 -0.158409 0.567589
vn -0.807929 -0.158409 0.567589
vn -0.836243 -0.542092 0.082661
vn -0.836243 -0.542092 0.082661
vn -0.836243 -0.542092 0.082661
vn -0.836244 -0.542092 0.082661
vn -0.794067 -0.360659 -0.489267
vn -0.794067 -0.360659 -0.489267
vn -0.794067 -0.360659 -0.489267
vn -0.794067 -0.360659 -0.489267
vn -0.765817 0.388868 -0.512158
vn -0.765817 0.388868 -0.512158
vn -0.765817 0.388868 -0.512158
vn -0.765817 0.388868 -0.512158
vn -0.633726 0.724614 0.270789
vn -0.633726 0.724614 0.270789
vn -0.633726 0.724614 0.270789
vn -0.633726 0.724614 0.270789
vn -0.017916 -0.828399 0.559853
vn -0.017916 -0.828399 0.559852
vn -0.017916 -0.828399 0.559852
vn -0.813208 0.247583 0.526683
vn -0.813208 0.247583 0.526683
vn -0.813208 0.247583 0.526683
vn -0.813208 0.247583 0.526684
vn -0.783837 0.616482 0.074493
vn -0.783837 0.616482 0.074493
vn -0.783837 0.616482 0.074493
vn -0.783837 0.616482 0.074493
vn -0.795764 0.170082 0.581233
vn -0.795764 0.170082 0.581232
vn -0.795764 0.170082 0.581232
vn -0.795764 0.170082 0.581233
vn -0.769282 -0.471473 0.431183
vn -0.769282 -0.471473 0.431183
vn -0.769282 -0.471473 0.431183
vn -0.769282 -0.471473 0.431183
vn -0.720456 -0.559302 -0.410029
vn -0.720456 -0.559302 -0.410029
vn -0.720456 -0.559302 -0.410029
vn -0.720456 -0.559302 -0.410029
vn -0.739810 0.189396 -0.645608
vn -0.739810 0.189396 -0.645608
vn -0.739810 0.189396 -0.645608
vn -0.739810 0.189396 -0.645608
vn -0.695332 0.699860 -0.163430
vn -0.695332 0.699860 -0.163430
vn -0.695332 0.699861 -0.163430
vn -0.695332 0.699860 -0.163430
vn -0.749791 0.436412 0.497352
vn -0.749791 0.436411 0.497351
vn -0.749791 0.436412 0.497352
vn -0.749791 0.436412 0.497351
vn -0.663365 -0.394471 0.635877
vn -0.663365 -0.394471 0.635877
vn -0.663365 -0.394471 0.635877
vn -0.663365 -0.394471 0.635877
vn -0.702703 -0.681977 -0.202768
vn -0.702703 -0.681977 -0.202768
vn -0.702703 -0.681977 -0.202768
vn -0.702703 -0.681977 -0.202768
vn 0.813790 0.275224 0.511856
vn 0.813790 0.275224 0.511856
vn 0.813790 0.275224 0.511856
vn 0.813790 0.275224 0.511856
vn 0.757540 0.644837 0.101577
vn 0.757540 0.644837 0.101577
vn 0.757540 0.644837 0.101577
vn 0.757540 0.644837 0.101577
vn 0.667819 0.163426 0.726161
vn 0.667820 0.163426 0.726160
vn 0.667820 0.163426 0.726160
vn 0.667820 0.163426 0.726160
vn 0.582041 -0.592898 0.556507
vn 0.582041 -0.592898 0.556507
vn 0.582041 -0.592898 0.556507
vn 0.582041 -0.592898 0.556507
vn 0.678298 -0.593170 -0.433661
vn 0.678298 -0.593170 -0.433661
vn 0.678298 -0.593170 -0.433661
vn 0.678298 -0.593170 -0.433661
vn 0.733076 0.187361 -0.653831
vn 0.733076 0.187361 -0.653831
vn 0.733076 0.187361 -0.653831
vn 0.733076 0.187361 -0.653831
vn 0.781193 0.612976 -0.118314
vn 0.781193 0.612976 -0.118314
vn 0.781193 0.612976 -0.118314
vn 0.781193 0.612976 -0.118314
vn 0.614459 0.508119 0.603535
vn 0.614459 0.508119 0.603535
vn 0.614459 0.508119 0.603535
vn 0.614459 0.508119 0.603535
vn 0.572785 -0.413232 0.707924
vn 0.572785 -0.413232 0.707924
vn 0.572785 -0.413232 0.707924
vn 0.572785 -0.413232 0.707924
vn 0.838135 -0.523055 -0.154737
vn 0.838135 -0.523055 -0.154737
vn 0.838135 -0.523055 -0.154737
vn 0.838135 -0.523055 -0.154737
vn 0.749505 -0.205110 -0.629423
vn 0.749505 -0.205110 -0.629423
vn 0.749505 -0.205110 -0.629423
vn 0.749505 -0.205110 -0.629423
vn 0.845008 -0.523794 -0.107705
vn 0.845008 -0.523795 -0.107705
vn 0.845008 -0.523794 -0.107705
vn 0.845008 -0.523794 -0.107705
vn 0.828930 -0.128813 -0.544318
vn 0.828930 -0.128813 -0.544318
vn 0.828930 -0.128813 -0.544318
vn 0.828930 -0.128813 -0.544318
vn 0.794407 0.463732 -0.392262
vn 0.794407 0.463732 -0.392262
vn 0.794407 0.463732 -0.392262
vn 0.794407 0.463732 -0.392262
vn 0.730319 0.521527 0.441185
vn 0.730319 0.521527 0.441185
vn 0.730319 0.521527 0.441185
vn 0.730319 0.521527 0.441185
vn 0.833941 -0.153558 0.530059
vn 0.833941 -0.153558 0.530059
vn 0.833941 -0.153558 0.530059
vn 0.833941 -0.153558 0.530059
vn 0.727372 -0.675241 0.122390
vn 0.727372 -0.675241 0.122390
vn 0.727372 -0.675241 0.122390
vn 0.727372 -0.675241 0.122390
vn 0.745883 -0.387246 -0.541940
vn 0.745883 -0.387246 -0.541940
vn 0.745883 -0.387246 -0.541940
vn 0.745883 -0.387246 -0.541940
vn 0.799051 0.385990 -0.461010
vn 0.799051 0.385990 -0.461010
vn 0.799051 0.385990 -0.461010
vn 0.799051 0.385990 -0.461010
vn 0.840837 0.502027 0.202389
vn 0.840837 0.502027 0.202389
vn 0.840837 0.502027 0.202390
vn 0.840837 0.502027 0.202389
vn 0.231235 -0.806078 0.544764
vn 0.231235 -0.806078 0.544764
vn 0.231235 -0.806078 0.544764
s off
g extrudedSurface2
usemtl lambert2SG
f 1/105/1 12/12/2 13/163/3 2/102/4
f 2/101/5 13/164/6 14/160/7 3/96/8
f 3/95/9 14/161/10 15/157/11 4/90/12
f 4/89/13 15/158/14 16/154/15 5/84/16
f 5/83/17 16/155/18 17/151/19 6/78/20
f 6/77/21 17/152/22 18/148/23 7/72/24
f 7/71/25 18/149/26 19/145/27 8/66/28
f 8/65/29 19/146/30 20/142/31 9/60/32
f 9/59/33 20/143/34 21/139/35 10/54/36
f 10/53/37 21/140/38 22/137/39 11/48/40
f 11/47/41 22/138/42 33/107/43
f 12/166/44 23/23/45 24/133/46 13/13/47
f 13/165/48 24/134/49 25/130/50 14/14/51
f 14/162/52 25/131/53 26/127/54 15/15/55
f 15/159/56 26/128/57 27/124/58 16/16/59
f 16/156/60 27/125/61 28/121/62 17/17/63
f 17/153/64 28/122/65 29/118/66 18/18/67
f 18/150/68 29/119/69 30/115/70 19/19/71
f 19/147/72 30/116/73 31/112/74 20/20/75
f 20/144/76 31/113/77 32/109/78 21/21/79
f 21/141/80 32/110/81 33/106/82 22/22/83
f 23/136/84 34/34/85 35/98/86 24/24/87
f 24/135/88 35/99/89 36/92/90 25/25/91
f 25/132/92 36/93/93 37/86/94 26/26/95
f 26/129/96 37/87/97 38/80/98 27/27/99
f 27/126/100 38/81/101 39/74/102 28/28/103
f 28/123/104 39/75/105 40/68/106 29/29/107
f 29/120/108 40/69/109 41/62/110 30/30/111
f 30/117/112 41/63/113 42/56/114 31/31/115
f 31/114/116 42/57/117 43/50/118 32/32/119
f 32/111/120 43/51/121 44/45/122 33/33/123
f 34/104/124 1/1/125 2/103/126 35/35/127
f 35/100/128 2/2/129 3/97/130 36/36/131
f 36/94/132 3/3/133 4/91/134 37/37/135
f 37/88/136 4/4/137 5/85/138 38/38/139
f 38/82/140 5/5/141 6/79/142 39/39/143
f 39/76/144 6/6/145 7/73/146 40/40/147
f 40/70/148 7/7/149 8/67/150 41/41/151
f 41/64/152 8/8/153 9/61/154 42/42/155
f 42/58/156 9/9/157 10/55/158 43/43/159
f 43/52/160 10/10/161 11/49/162 44/44/163
f 44/46/164 11/11/165 33/108/166
