# This file uses centimeters as units for non-parametric coordinates.

mtllib spike 4.mtl
g default
v 3.402557 0.000000 -3.404206
v 2.910025 7.905902 -1.797999
v 2.047279 16.143667 1.571783
v 0.042536 36.575394 -0.468383
v -0.000000 -0.000000 -4.596478
v -0.000000 8.219858 -3.037519
v -0.000000 16.223913 0.515984
v -3.715251 0.000001 -3.726426
v -2.908603 7.905328 -1.796621
v -2.421997 16.228893 1.252005
v -5.109651 0.000000 -0.010316
v -2.964518 16.062771 3.619022
v -2.594458 23.592014 2.767058
v -3.278915 -0.000001 3.280151
v -2.736217 6.522782 3.681760
v -2.251833 15.986701 5.878874
v -0.000000 -0.000001 5.023298
v -0.000000 6.192513 5.324878
v -0.000000 15.933352 6.554799
v -0.000000 24.049669 5.267551
v 3.702565 -0.000000 3.683759
v 2.991165 2.936718 3.511903
v 1.968013 15.959424 5.569135
v 1.822026 23.923679 4.562130
v 4.709559 -0.000000 -0.000055
v 4.316386 7.234214 1.026388
v 3.256245 16.095573 3.642984
vt 0.295820 0.765915
vt 0.532732 0.740317
vt 0.320115 0.730438
vt 0.533618 0.766541
vt 0.327976 0.728682
vt 0.331750 0.757584
vt 0.333734 0.784586
vt 0.344957 0.730893
vt 0.524154 0.753087
vt 0.435294 0.730499
vt 0.531947 0.740236
vt 0.331207 0.772631
vt 0.520385 0.749285
vt 0.541425 0.739447
vt 0.319064 0.769608
vt 0.422147 0.746163
vt 0.334089 0.745680
vt 0.436489 0.739307
vt 0.435719 0.762369
vt 0.429237 0.763645
vt 0.348295 0.744760
vt 0.329781 0.755007
vt 0.441790 0.753117
vt 0.435416 0.763023
vt 0.363162 0.746208
vt 0.513475 0.742175
vt 0.441444 0.729782
vt 0.448396 0.751478
vt 0.448812 0.748792
vt 0.548362 0.747774
vt 0.313624 0.733577
vt 0.412522 0.730549
vt 0.315779 0.785482
vt 0.532732 0.793944
vt 0.423283 0.729782
vt 0.374341 0.745413
vt 0.342386 0.769091
vt 0.454671 0.740704
vt 0.448396 0.724209
vt 0.429729 0.799213
vt 0.319906 0.749779
vt 0.319340 0.758431
vt 0.357350 0.719879
vt 0.342386 0.742175
vt 0.320853 0.789900
vt 0.315525 0.730486
vt 0.518134 0.785223
vt 0.516743 0.789853
vt 0.518245 0.794394
vt 0.445616 0.781909
vt 0.446774 0.788153
vt 0.447912 0.786984
vt 0.355405 0.781429
vt 0.434084 0.764838
vt 0.545927 0.747696
vt 0.540860 0.752831
vt 0.442709 0.761584
vt 0.444221 0.763806
vt 0.442077 0.762369
vt 0.439678 0.745149
vt 0.444195 0.745513
vt 0.348388 0.756665
vt 0.348295 0.755909
vt 0.347710 0.757230
vt 0.444221 0.729718
vt 0.447869 0.730544
vt 0.349045 0.745481
vt 0.427741 0.765380
vt 0.534693 0.751537
vt 0.540392 0.743994
vt 0.434624 0.762155
vt 0.427741 0.745785
vt 0.434369 0.743334
vt 0.332841 0.769253
vt 0.331654 0.769888
vt 0.432078 0.736982
vt 0.436977 0.734038
vt 0.335170 0.744553
vt 0.334090 0.747686
vt 0.428587 0.762684
vt 0.340865 0.774592
vt 0.452488 0.731673
vt 0.529049 0.723466
vt 0.534630 0.725757
vt 0.541425 0.754420
vt 0.540110 0.753785
vt 0.340865 0.734156
vt 0.423880 0.738061
vt 0.319628 0.743879
vt 0.438516 0.746516
vt 0.441172 0.748026
vt 0.442858 0.745523
vt 0.528103 0.774741
vt 0.531989 0.772297
vt 0.361053 0.784956
vt 0.441172 0.729375
vt 0.446950 0.729711
vt 0.531989 0.737110
vt 0.538307 0.733969
vt 0.532865 0.738641
vt 0.350526 0.784956
vt 0.344280 0.785107
vt 0.430275 0.727017
vt 0.431992 0.728591
vt 0.522677 0.754291
vt 0.344957 0.757870
vt 0.343104 0.757584
vt 0.345306 0.754921
vt 0.344280 0.748076
vt 0.340630 0.747858
vt 0.524316 0.737980
vt 0.328320 0.784569
vt 0.325026 0.786039
vt 0.419396 0.727697
vt 0.423100 0.730060
vt 0.330413 0.757775
vt 0.332543 0.751653
vt 0.333710 0.752171
vt 0.332482 0.727702
vt 0.332380 0.731425
vn 0.361138 0.190216 -0.912906
vn 0.361138 0.190216 -0.912906
vn 0.361139 0.190216 -0.912906
vn 0.361139 0.190216 -0.912906
vn 0.413841 0.375485 -0.829305
vn 0.413841 0.375485 -0.829305
vn 0.413841 0.375485 -0.829305
vn 0.413841 0.375485 -0.829305
vn 0.456545 -0.043935 -0.888615
vn 0.456545 -0.043935 -0.888615
vn 0.456545 -0.043935 -0.888615
vn -0.220627 0.252495 -0.942109
vn -0.220627 0.252495 -0.942110
vn -0.220627 0.252495 -0.942109
vn -0.402208 0.170600 -0.899513
vn -0.402208 0.170600 -0.899514
vn -0.402208 0.170600 -0.899514
vn -0.397974 0.372253 -0.838477
vn -0.397974 0.372253 -0.838477
vn -0.397974 0.372253 -0.838477
vn -0.272268 0.344923 -0.898275
vn -0.272268 0.344923 -0.898275
vn -0.272268 0.344923 -0.898275
vn -0.290544 -0.045622 -0.955773
vn -0.290544 -0.045622 -0.955773
vn -0.290544 -0.045622 -0.955773
vn -0.921241 0.178387 -0.345678
vn -0.921241 0.178387 -0.345678
vn -0.921241 0.178387 -0.345678
vn -0.934453 0.192482 -0.299579
vn -0.934453 0.192482 -0.299579
vn -0.934453 0.192482 -0.299579
vn -0.967896 0.134383 -0.212411
vn -0.967896 0.134383 -0.212411
vn -0.967896 0.134383 -0.212411
vn -0.974819 0.022811 -0.221828
vn -0.974819 0.022811 -0.221828
vn -0.974819 0.022811 -0.221828
vn -0.892944 0.070568 -0.444602
vn -0.892944 0.070568 -0.444602
vn -0.892944 0.070568 -0.444602
vn -0.873055 0.042731 0.485746
vn -0.873055 0.042731 0.485746
vn -0.873055 0.042731 0.485746
vn -0.827874 -0.016125 0.560682
vn -0.827874 -0.016125 0.560682
vn -0.827874 -0.016125 0.560682
vn -0.953692 -0.020849 0.300062
vn -0.953692 -0.020849 0.300062
vn -0.953692 -0.020849 0.300062
vn -0.949789 0.080883 0.302255
vn -0.949789 0.080883 0.302255
vn -0.949789 0.080883 0.302255
vn -0.516101 0.304340 0.800635
vn -0.516101 0.304340 0.800635
vn -0.516101 0.304340 0.800635
vn -0.491515 -0.027160 0.870445
vn -0.491515 -0.027160 0.870445
vn -0.491515 -0.027160 0.870445
vn -0.491515 -0.027160 0.870445
vn -0.426278 -0.148481 0.892323
vn -0.426278 -0.148481 0.892323
vn -0.426278 -0.148481 0.892323
vn -0.426278 -0.148481 0.892323
vn -0.280958 0.150333 0.947873
vn -0.280958 0.150333 0.947873
vn -0.280958 0.150333 0.947873
vn -0.782576 0.261398 0.565018
vn -0.782576 0.261398 0.565018
vn -0.782576 0.261398 0.565018
vn 0.337038 0.136162 0.931593
vn 0.337038 0.136162 0.931593
vn 0.337038 0.136162 0.931593
vn 0.483562 -0.042578 0.874274
vn 0.483562 -0.042578 0.874274
vn 0.483562 -0.042578 0.874274
vn 0.426356 -0.108369 0.898041
vn 0.426356 -0.108369 0.898041
vn 0.426356 -0.108369 0.898041
vn 0.446180 -0.112109 0.887894
vn 0.446180 -0.112109 0.887894
vn 0.446180 -0.112109 0.887894
vn 0.406784 0.132646 0.903843
vn 0.406784 0.132646 0.903843
vn 0.406784 0.132646 0.903843
vn 0.406784 0.132646 0.903843
vn 0.355965 0.388082 0.850106
vn 0.355965 0.388082 0.850106
vn 0.355965 0.388082 0.850106
vn 0.936006 0.241715 0.255863
vn 0.936007 0.241715 0.255863
vn 0.936006 0.241715 0.255863
vn 0.893033 -0.015276 0.449733
vn 0.893032 -0.015276 0.449733
vn 0.893033 -0.015276 0.449733
vn 0.885212 -0.003936 0.465170
vn 0.885213 -0.003936 0.465170
vn 0.885212 -0.003936 0.465170
vn 0.831619 -0.063419 0.551713
vn 0.831619 -0.063419 0.551713
vn 0.831619 -0.063419 0.551713
vn 0.825360 0.085691 0.558067
vn 0.825359 0.085691 0.558067
vn 0.825359 0.085691 0.558067
vn 0.982029 0.170393 0.081154
vn 0.982029 0.170393 0.081154
vn 0.982029 0.170393 0.081154
vn 0.914793 0.120551 -0.385514
vn 0.914793 0.120551 -0.385514
vn 0.914793 0.120551 -0.385514
vn 0.914793 0.120551 -0.385514
vn 0.889164 0.249921 -0.383310
vn 0.889164 0.249921 -0.383310
vn 0.889164 0.249921 -0.383310
vn 0.840070 0.243624 -0.484695
vn 0.840070 0.243624 -0.484695
vn 0.840070 0.243624 -0.484695
vn 0.863475 0.034476 -0.503212
vn 0.863475 0.034476 -0.503212
vn 0.863475 0.034476 -0.503212
s off
g extrudedSurface2
usemtl lambert2SG
f 1/46/1 5/5/2 6/116/3 2/42/4
f 2/41/5 6/117/6 7/113/7 3/33/8
f 3/32/9 7/114/10 4/52/11
f 5/120/12 8/8/13 9/106/14
f 5/119/15 9/107/16 6/6/17
f 6/118/18 9/108/19 7/112/20
f 7/7/21 9/109/22 10/102/23
f 7/115/24 10/103/25 4/51/26
f 8/111/27 11/11/28 9/105/29
f 9/9/30 11/98/31 12/94/32
f 9/110/33 12/95/34 10/101/35
f 10/10/36 12/96/37 13/91/38
f 10/104/39 13/92/40 4/50/41
f 11/100/42 14/14/43 15/85/44
f 11/99/45 15/86/46 12/93/47
f 12/12/48 15/87/49 16/81/50
f 12/97/51 16/82/52 13/90/53
f 13/13/54 16/83/55 4/49/56
f 14/89/57 17/17/58 18/75/59 15/15/60
f 15/88/61 18/76/62 19/71/63 16/80/64
f 16/16/65 19/72/66 20/68/67
f 16/84/68 20/69/69 4/48/70
f 17/79/71 21/21/72 22/63/73
f 17/78/74 22/64/75 18/74/76
f 18/18/77 22/65/78 23/58/79
f 18/77/80 23/59/81 19/19/82
f 19/73/83 23/60/84 24/54/85 20/20/86
f 20/70/87 24/55/88 4/47/89
f 21/67/90 25/25/91 22/62/92
f 22/22/93 25/44/94 26/37/95
f 22/66/96 26/38/97 23/57/98
f 23/23/99 26/39/100 27/28/101
f 23/61/102 27/29/103 24/24/104
f 24/56/105 27/30/106 4/4/107
f 25/45/108 1/1/109 2/43/110 26/36/111
f 26/26/112 2/2/113 3/34/114
f 26/40/115 3/35/116 27/27/117
f 27/31/118 3/3/119 4/53/120
