# This file uses centimeters as units for non-parametric coordinates.

mtllib Crystals_2.mtl
g default
v 14.940843 36.160414 -9.018742
v 15.327063 35.582937 -11.142250
v 14.183372 36.563385 -12.792288
v 12.653462 38.121312 -12.318817
v 12.267243 38.698789 -10.195310
v 13.410934 37.718341 -8.545273
v 15.538403 38.899935 -10.830456
v 4.649584 28.867319 -7.731775
v 6.179494 27.309392 -8.205244
v 3.505894 29.847767 -9.381812
v 3.892112 29.270289 -11.505319
v 5.422022 27.712363 -11.978790
v 6.565712 26.731914 -10.328752
v 9.693014 41.900225 -9.205897
v 7.173757 42.538651 -10.285199
v 4.914970 42.657746 -8.611032
v 5.175440 42.138415 -5.857563
v 7.694698 41.499990 -4.778263
v 9.953484 41.380895 -6.452430
v 7.979668 45.051148 -7.011496
v 7.209020 26.125820 -9.070065
v 6.948550 26.645150 -11.823533
v 4.950234 26.244914 -7.395898
v 2.430977 26.883340 -8.475199
v 2.170506 27.402670 -11.228667
v 4.429293 27.283576 -12.902834
v 3.544746 41.513217 -10.647981
v 2.380955 41.038338 -11.216159
v 1.309297 40.702805 -10.415089
v 1.401430 40.842152 -9.045842
v 2.565221 41.317031 -8.477663
v 3.636878 41.652563 -9.278733
v 1.942393 42.609933 -9.956960
v 6.307145 34.446000 -8.725004
v 6.215012 34.306653 -10.094252
v 5.235487 34.110467 -7.923935
v 4.071697 33.635588 -8.492113
v 3.979564 33.496241 -9.861360
v 5.051222 33.831774 -10.662430
vt 0.690661 0.186323
vt 0.677699 0.186318
vt 0.716585 0.186333
vt 0.677894 0.127808
vt 0.690857 0.127822
vt 0.703623 0.186328
vt 0.638812 0.186302
vt 0.651774 0.186307
vt 0.664737 0.186312
vt 0.697102 0.202630
vt 0.639008 0.127769
vt 0.632538 0.116537
vt 0.639030 0.105318
vt 0.651992 0.105331
vt 0.658462 0.116563
vt 0.651970 0.127782
vt 0.703819 0.127834
vt 0.716781 0.127847
vt 0.664932 0.127795
vt 0.684139 0.202625
vt 0.671177 0.202619
vt 0.658215 0.202614
vt 0.645253 0.202609
vt 0.710064 0.202635
vt 0.639008 0.127769
vt 0.632538 0.116537
vt 0.639030 0.105318
vt 0.651992 0.105331
vt 0.658462 0.116563
vt 0.651970 0.127782
vt 0.638812 0.186302
vt 0.651774 0.186307
vt 0.645253 0.202609
vt 0.664737 0.186312
vt 0.658215 0.202614
vt 0.677699 0.186318
vt 0.671177 0.202619
vt 0.690661 0.186323
vt 0.684139 0.202625
vt 0.703623 0.186328
vt 0.697102 0.202630
vt 0.716585 0.186333
vt 0.710064 0.202635
vt 0.703819 0.127834
vt 0.716781 0.127847
vt 0.690857 0.127822
vt 0.677894 0.127808
vt 0.664932 0.127795
vt 0.639008 0.127769
vt 0.632538 0.116537
vt 0.639030 0.105318
vt 0.651992 0.105331
vt 0.658462 0.116563
vt 0.651970 0.127782
vt 0.638812 0.186302
vt 0.651774 0.186307
vt 0.645253 0.202609
vt 0.664737 0.186312
vt 0.658215 0.202614
vt 0.677699 0.186318
vt 0.671177 0.202619
vt 0.690661 0.186323
vt 0.684139 0.202625
vt 0.703623 0.186328
vt 0.697102 0.202630
vt 0.716585 0.186333
vt 0.710064 0.202635
vt 0.703819 0.127834
vt 0.716781 0.127847
vt 0.690857 0.127822
vt 0.677894 0.127808
vt 0.664932 0.127795
vn -0.702002 -0.709186 0.065181
vn -0.702002 -0.709186 0.065181
vn -0.702001 -0.709186 0.065181
vn -0.702002 -0.709186 0.065181
vn -0.702002 -0.709186 0.065181
vn -0.702002 -0.709186 0.065181
vn 0.976519 -0.080983 0.199630
vn 0.976519 -0.080983 0.199630
vn 0.976519 -0.080983 0.199630
vn 0.822187 0.001120 -0.569217
vn 0.822187 0.001120 -0.569217
vn 0.822187 0.001120 -0.569217
vn 0.277450 0.518305 -0.808938
vn 0.277450 0.518305 -0.808938
vn 0.277450 0.518305 -0.808938
vn -0.112954 0.953387 -0.279812
vn -0.112954 0.953387 -0.279812
vn -0.112954 0.953387 -0.279812
vn 0.041377 0.871283 0.489034
vn 0.041377 0.871283 0.489034
vn 0.041377 0.871283 0.489034
vn 0.586115 0.354097 0.728755
vn 0.586115 0.354097 0.728755
vn 0.586115 0.354097 0.728756
vn 0.195736 -0.104131 0.975112
vn 0.195736 -0.104131 0.975112
vn 0.195736 -0.104131 0.975112
vn 0.195736 -0.104131 0.975112
vn -0.495142 0.551804 0.671079
vn -0.495142 0.551804 0.671079
vn -0.495142 0.551804 0.671079
vn -0.495142 0.551804 0.671079
vn -0.690878 0.655935 -0.304034
vn -0.690878 0.655935 -0.304034
vn -0.690878 0.655935 -0.304034
vn -0.690878 0.655935 -0.304034
vn -0.195736 0.104131 -0.975112
vn -0.195736 0.104131 -0.975112
vn -0.195736 0.104131 -0.975112
vn -0.195736 0.104131 -0.975112
vn 0.495142 -0.551804 -0.671079
vn 0.495142 -0.551804 -0.671079
vn 0.495142 -0.551804 -0.671079
vn 0.495142 -0.551804 -0.671079
vn 0.690878 -0.655935 0.304034
vn 0.690878 -0.655935 0.304034
vn 0.690878 -0.655935 0.304034
vn 0.690878 -0.655935 0.304034
vn -0.174590 -0.970458 -0.166522
vn -0.174590 -0.970458 -0.166522
vn -0.174590 -0.970458 -0.166522
vn -0.174590 -0.970458 -0.166522
vn -0.174590 -0.970458 -0.166522
vn -0.174590 -0.970458 -0.166522
vn 0.430644 0.661647 -0.613815
vn 0.430644 0.661647 -0.613815
vn 0.430644 0.661647 -0.613815
vn -0.342278 0.784187 -0.517586
vn -0.342278 0.784188 -0.517586
vn -0.342278 0.784188 -0.517586
vn -0.665537 0.719443 0.198652
vn -0.665537 0.719443 0.198652
vn -0.665537 0.719443 0.198652
vn -0.215873 0.532158 0.818661
vn -0.215873 0.532158 0.818661
vn -0.215873 0.532158 0.818661
vn 0.557050 0.409618 0.722433
vn 0.557050 0.409618 0.722433
vn 0.557050 0.409618 0.722433
vn 0.880308 0.474362 0.006194
vn 0.880308 0.474362 0.006194
vn 0.880308 0.474362 0.006194
vn 0.980281 -0.155416 -0.122045
vn 0.980281 -0.155416 -0.122045
vn 0.980281 -0.155416 -0.122045
vn 0.980281 -0.155416 -0.122045
vn 0.570299 -0.237530 0.786345
vn 0.570299 -0.237530 0.786345
vn 0.570299 -0.237530 0.786345
vn 0.570299 -0.237530 0.786345
vn -0.409982 -0.082114 0.908390
vn -0.409982 -0.082114 0.908390
vn -0.409982 -0.082114 0.908390
vn -0.409982 -0.082114 0.908390
vn -0.980281 0.155416 0.122045
vn -0.980281 0.155416 0.122045
vn -0.980281 0.155416 0.122045
vn -0.980281 0.155416 0.122045
vn -0.570299 0.237530 -0.786345
vn -0.570299 0.237530 -0.786345
vn -0.570299 0.237530 -0.786345
vn -0.570299 0.237530 -0.786345
vn 0.409982 0.082114 -0.908390
vn 0.409982 0.082114 -0.908390
vn 0.409982 0.082114 -0.908390
vn 0.409982 0.082114 -0.908390
vn 0.346550 -0.935275 0.071863
vn 0.346550 -0.935275 0.071863
vn 0.346550 -0.935275 0.071863
vn 0.346550 -0.935275 0.071863
vn 0.346550 -0.935275 0.071863
vn 0.346550 -0.935275 0.071863
vn 0.110105 0.640007 -0.760439
vn 0.110105 0.640007 -0.760439
vn 0.110105 0.640007 -0.760439
vn -0.627627 0.372559 -0.683582
vn -0.627627 0.372559 -0.683582
vn -0.627627 0.372559 -0.683582
vn -0.950886 0.307814 0.032656
vn -0.950886 0.307814 0.032656
vn -0.950886 0.307814 0.032656
vn -0.536412 0.510518 0.672037
vn -0.536412 0.510518 0.672037
vn -0.536412 0.510518 0.672037
vn 0.201321 0.777967 0.595179
vn 0.201321 0.777967 0.595179
vn 0.201321 0.777967 0.595179
vn 0.524579 0.842711 -0.121059
vn 0.524579 0.842711 -0.121059
vn 0.524579 0.842711 -0.121059
vn 0.935651 0.339199 -0.097478
vn 0.935651 0.339199 -0.097478
vn 0.935651 0.339199 -0.097478
vn 0.935651 0.339199 -0.097478
vn 0.525669 0.257085 0.810913
vn 0.525669 0.257085 0.810913
vn 0.525669 0.257085 0.810913
vn 0.525669 0.257085 0.810913
vn -0.409982 -0.082114 0.908390
vn -0.409982 -0.082114 0.908390
vn -0.409982 -0.082114 0.908390
vn -0.409982 -0.082114 0.908390
vn -0.935651 -0.339199 0.097477
vn -0.935651 -0.339199 0.097477
vn -0.935651 -0.339199 0.097477
vn -0.935651 -0.339199 0.097477
vn -0.525669 -0.257085 -0.810913
vn -0.525669 -0.257085 -0.810913
vn -0.525669 -0.257085 -0.810913
vn -0.525669 -0.257085 -0.810913
vn 0.409982 0.082114 -0.908390
vn 0.409982 0.082114 -0.908390
vn 0.409982 0.082114 -0.908390
vn 0.409982 0.082114 -0.908390
s off
g pCone7
usemtl initialShadingGroup
f 9/11/1 8/12/2 10/13/3 11/14/4 12/15/5 13/16/6
f 1/7/7 2/8/8 7/23/9
f 2/8/10 3/9/11 7/22/12
f 3/9/13 4/2/14 7/21/15
f 4/2/16 5/1/17 7/20/18
f 5/1/19 6/6/20 7/10/21
f 6/6/22 1/3/23 7/24/24
f 1/3/25 6/6/26 8/17/27 9/18/28
f 6/6/29 5/1/30 10/5/31 8/17/32
f 5/1/33 4/2/34 11/4/35 10/5/36
f 4/2/37 3/9/38 12/19/39 11/4/40
f 3/9/41 2/8/42 13/16/43 12/19/44
f 2/8/45 1/7/46 9/11/47 13/16/48
f 22/25/49 21/26/50 23/27/51 24/28/52 25/29/53 26/30/54
f 14/31/55 15/32/56 20/33/57
f 15/32/58 16/34/59 20/35/60
f 16/34/61 17/36/62 20/37/63
f 17/36/64 18/38/65 20/39/66
f 18/38/67 19/40/68 20/41/69
f 19/40/70 14/42/71 20/43/72
f 14/42/73 19/40/74 21/44/75 22/45/76
f 19/40/77 18/38/78 23/46/79 21/44/80
f 18/38/81 17/36/82 24/47/83 23/46/84
f 17/36/85 16/34/86 25/48/87 24/47/88
f 16/34/89 15/32/90 26/30/91 25/48/92
f 15/32/93 14/31/94 22/25/95 26/30/96
f 35/49/97 34/50/98 36/51/99 37/52/100 38/53/101 39/54/102
f 27/55/103 28/56/104 33/57/105
f 28/56/106 29/58/107 33/59/108
f 29/58/109 30/60/110 33/61/111
f 30/60/112 31/62/113 33/63/114
f 31/62/115 32/64/116 33/65/117
f 32/64/118 27/66/119 33/67/120
f 27/66/121 32/64/122 34/68/123 35/69/124
f 32/64/125 31/62/126 36/70/127 34/68/128
f 31/62/129 30/60/130 37/71/131 36/70/132
f 30/60/133 29/58/134 38/72/135 37/71/136
f 29/58/137 28/56/138 39/54/139 38/72/140
f 28/56/141 27/55/142 35/49/143 39/54/144
